<?xml version="1.0" standalone="no"?>
<!DOCTYPE svg PUBLIC "-//W3C//DTD SVG 20010904//EN"
 "http://www.w3.org/TR/2001/REC-SVG-20010904/DTD/svg10.dtd">
<svg version="1.0" xmlns="http://www.w3.org/2000/svg"
 width="880.000000pt" height="880.000000pt" viewBox="0 0 880.000000 880.000000"
 preserveAspectRatio="xMidYMid meet">
<metadata>
Created by potrace 1.11, written by Peter Selinger 2001-2013
</metadata>
<g transform="translate(0.000000,880.000000) scale(0.100000,-0.100000)"
fill="#000000" stroke="none">
<path d="M3512 8782 c-99 -40 -160 -140 -152 -252 1 -19 2 -41 1 -47 -1 -7 -1
-19 -2 -25 -1 -20 0 -139 2 -178 0 -19 1 -41 1 -47 -3 -73 -2 -165 3 -196 17
-101 108 -185 209 -193 23 -1 43 -4 46 -5 3 -1 9 -1 14 0 31 6 88 6 92 -1 3
-4 16 -3 29 2 14 5 27 5 30 0 3 -5 18 -5 33 -1 15 5 37 5 49 0 12 -4 24 -5 27
-1 3 6 71 8 71 2 0 -1 17 -2 38 -3 20 -1 37 1 37 5 0 4 6 5 14 2 21 -8 106
-10 106 -2 0 4 14 3 30 -2 19 -5 30 -5 30 1 0 6 5 7 10 4 14 -9 118 -10 126
-2 4 3 15 2 25 -3 12 -7 20 -7 24 0 4 6 11 8 16 5 13 -9 99 -11 99 -4 0 4 15
4 33 0 17 -4 44 -4 60 0 15 4 27 3 27 -2 0 -5 11 -4 25 1 15 6 27 6 30 0 3 -5
15 -6 29 0 12 4 29 4 36 0 8 -5 19 -6 25 -2 13 8 45 9 71 0 11 -3 27 -2 34 2
8 5 21 5 30 0 9 -5 22 -5 30 0 8 5 21 5 30 0 9 -5 22 -5 30 0 8 5 21 5 31 -1
11 -6 20 -5 24 1 3 5 15 6 28 1 12 -5 34 -5 49 0 17 5 28 4 28 -2 0 -6 4 -8 9
-4 5 3 27 7 49 9 84 8 169 74 195 151 10 28 15 86 16 166 0 68 1 124 1 124 1
0 2 26 3 58 1 31 -2 57 -6 57 -5 0 -6 4 -2 10 7 12 7 145 0 185 -17 88 -63
149 -140 185 -38 18 -82 19 -890 19 -777 0 -854 -1 -893 -17z"/>
<path d="M3939 7596 c-13 -7 -23 -19 -21 -27 4 -15 4 -15 1 -115 -1 -40 1 -77
5 -83 4 -6 2 -11 -4 -11 -6 0 -8 -5 -5 -10 4 -6 6 -34 6 -63 -1 -29 -1 -67 -1
-84 1 -36 5 -34 -110 -53 -140 -22 -128 -20 -310 -65 -121 -31 -399 -122 -417
-137 -7 -6 -13 -8 -13 -4 0 3 -17 -3 -37 -14 -21 -11 -42 -20 -48 -20 -5 0
-41 -16 -80 -35 -38 -19 -75 -35 -82 -35 -6 0 -13 -4 -15 -9 -1 -5 -9 -11 -17
-13 -8 -2 -52 -24 -99 -50 -46 -27 -88 -48 -93 -48 -5 0 -9 -4 -9 -10 0 -5 -3
-9 -7 -8 -5 1 -21 -6 -38 -17 -74 -46 -261 -172 -280 -186 -106 -87 -136 -109
-145 -109 -5 0 -75 65 -156 145 -80 80 -158 152 -173 160 -100 51 -238 21
-301 -66 -52 -72 -63 -186 -25 -258 8 -16 79 -94 159 -174 l144 -144 -47 -51
c-25 -28 -53 -59 -61 -69 -8 -10 -36 -43 -61 -73 -25 -30 -74 -95 -109 -145
-36 -49 -67 -92 -70 -95 -3 -3 -28 -41 -55 -85 -64 -103 -73 -117 -82 -135 -4
-8 -28 -51 -53 -95 -25 -44 -48 -84 -50 -90 -1 -5 -21 -48 -43 -95 -88 -190
-190 -471 -223 -621 -2 -10 -6 -27 -9 -36 -14 -53 -31 -128 -39 -178 -2 -11
-7 -37 -11 -59 -4 -21 -8 -46 -10 -55 -1 -9 -6 -41 -10 -71 -4 -30 -9 -64 -11
-74 -26 -138 -25 -687 1 -851 3 -16 7 -48 9 -70 3 -22 7 -53 10 -70 13 -67 19
-101 21 -123 16 -123 138 -527 206 -679 10 -24 19 -45 19 -48 0 -24 216 -437
231 -443 5 -2 9 -8 9 -13 0 -9 126 -205 140 -219 3 -3 32 -40 64 -84 32 -43
66 -87 75 -98 199 -239 411 -442 641 -612 58 -43 113 -84 123 -92 9 -8 21 -14
26 -14 5 0 16 -6 23 -13 13 -12 56 -42 90 -62 126 -74 204 -116 313 -169 115
-56 150 -72 230 -106 144 -60 438 -150 568 -174 15 -2 30 -7 34 -9 5 -3 30 -8
57 -11 27 -4 52 -9 56 -11 3 -2 24 -6 46 -9 21 -3 55 -7 74 -10 150 -23 287
-31 525 -30 206 0 363 7 405 19 8 2 42 7 75 10 33 4 80 11 105 16 42 9 82 16
140 24 14 2 52 11 85 20 33 9 68 18 78 20 10 2 27 7 37 10 10 3 27 8 37 10 55
11 349 115 433 152 108 48 288 139 364 183 48 27 91 50 96 50 5 0 10 3 12 8 2
4 62 46 133 94 72 47 140 94 152 105 12 10 45 36 73 58 163 126 429 387 532
520 12 17 27 35 33 41 5 6 17 21 25 34 8 12 25 34 38 48 12 15 26 32 31 37 18
23 169 252 185 280 9 17 33 57 52 90 19 33 38 68 41 77 3 10 9 18 14 18 5 0 9
6 9 14 0 7 13 38 29 68 67 125 253 608 234 608 -3 0 0 7 7 15 7 8 10 15 7 15
-2 0 4 33 15 72 11 40 21 84 23 98 2 14 13 70 24 125 11 55 23 129 27 165 3
36 8 68 10 71 9 16 18 219 19 414 0 266 -7 358 -41 570 -8 50 -17 104 -19 120
-6 38 -12 63 -23 100 -5 17 -8 38 -6 48 1 9 -2 17 -7 17 -5 0 -9 10 -9 22 0
12 -4 35 -10 52 -5 17 -28 92 -51 166 -23 74 -48 149 -55 165 -7 17 -25 62
-39 100 -38 98 -174 373 -236 475 -87 145 -152 244 -176 268 -7 7 -13 17 -13
20 0 4 -10 18 -22 32 -13 14 -36 43 -52 65 -17 22 -32 42 -35 45 -4 3 -22 25
-42 50 -20 25 -55 65 -78 89 -23 24 -41 48 -41 53 0 4 65 74 145 154 121 123
147 155 162 198 9 28 16 54 16 57 -1 3 -4 26 -7 52 -8 62 -24 96 -66 136 -81
77 -181 94 -279 45 -18 -9 -99 -83 -180 -164 l-147 -147 -25 19 c-13 10 -31
25 -39 31 -8 7 -37 28 -65 47 -27 19 -54 40 -60 46 -14 15 -230 155 -285 185
-25 13 -47 26 -50 29 -3 3 -25 15 -50 28 -25 12 -52 27 -60 32 -19 12 -229
110 -235 110 -3 0 -24 9 -48 19 -138 62 -435 156 -557 177 -19 3 -38 8 -42 11
-9 5 -26 8 -82 17 -20 3 -55 10 -78 16 -24 5 -56 10 -73 10 -55 1 -57 5 -54
127 1 28 -2 56 -6 62 -3 6 -1 11 5 11 6 0 8 5 5 10 -9 14 -10 103 -2 116 3 5
2 16 -3 23 -4 8 -4 26 0 42 6 19 4 31 -5 39 -14 11 -135 19 -135 9 0 -3 -12
-4 -27 -2 -57 8 -93 8 -93 1 0 -4 -6 -5 -13 -2 -21 8 -98 10 -103 3 -2 -3 -16
-4 -31 -2 -29 4 -141 6 -158 3 -6 -2 -14 -2 -20 -1 -26 5 -215 2 -224 -3 -5
-4 -12 -2 -15 3 -4 6 -18 6 -34 1 -16 -4 -35 -4 -43 1 -9 4 -25 3 -40 -5z
m597 -1041 c77 -3 149 -7 162 -10 13 -2 53 -7 90 -11 37 -3 70 -8 73 -9 3 -2
28 -7 55 -11 27 -3 51 -8 54 -9 3 -2 25 -6 50 -10 25 -4 48 -9 52 -11 4 -3 17
-7 28 -10 11 -2 29 -6 41 -9 45 -10 231 -66 244 -74 6 -3 15 -6 20 -7 79 -13
544 -246 630 -316 6 -4 47 -34 91 -66 76 -53 115 -83 204 -156 80 -67 302
-298 379 -395 87 -110 201 -274 201 -290 0 -5 4 -11 9 -13 16 -6 138 -236 205
-390 93 -211 186 -552 210 -773 4 -27 9 -72 12 -100 5 -47 11 -183 14 -305 1
-63 -8 -228 -15 -279 -3 -18 -8 -57 -10 -86 -3 -28 -8 -63 -10 -76 -3 -13 -8
-40 -11 -59 -3 -19 -13 -64 -21 -100 -8 -36 -16 -69 -17 -75 -1 -5 -6 -26 -10
-45 -15 -71 -97 -317 -121 -363 -8 -16 -15 -33 -15 -38 0 -15 -121 -260 -161
-328 -22 -34 -39 -67 -39 -71 0 -5 -6 -15 -13 -22 -7 -7 -28 -38 -47 -68 -19
-30 -38 -59 -43 -65 -4 -5 -31 -41 -59 -80 -28 -38 -54 -72 -57 -75 -4 -3 -26
-30 -51 -60 -57 -71 -268 -282 -345 -346 -33 -27 -62 -52 -65 -55 -3 -3 -36
-29 -75 -57 -38 -28 -74 -55 -80 -60 -67 -54 -455 -271 -455 -255 0 5 -4 3 -8
-3 -4 -6 -47 -27 -97 -47 -49 -20 -103 -41 -120 -48 -35 -14 -28 -12 -85 -28
-25 -6 -52 -15 -60 -18 -54 -22 -187 -55 -310 -78 -14 -3 -36 -7 -50 -10 -52
-11 -79 -15 -132 -20 -30 -3 -65 -7 -77 -10 -19 -4 -258 -18 -286 -17 -113 3
-292 13 -313 16 -15 3 -49 7 -77 11 -27 3 -61 8 -75 11 -14 3 -41 7 -60 9 -19
2 -66 11 -105 20 -38 9 -81 19 -94 21 -13 3 -32 9 -41 14 -10 5 -19 7 -22 5
-4 -4 -76 16 -118 33 -8 3 -19 7 -25 7 -5 1 -23 7 -40 14 -16 7 -38 14 -48 16
-10 2 -32 11 -49 20 -17 8 -35 15 -40 15 -18 0 -274 123 -378 181 -106 60
-350 226 -380 259 -3 3 -32 27 -65 54 -92 76 -273 257 -345 347 -36 44 -75 92
-88 107 -13 15 -53 72 -90 127 -37 55 -70 102 -74 103 -5 2 -8 7 -8 12 0 5
-20 42 -45 84 -24 41 -65 119 -90 173 -26 54 -51 106 -56 116 -10 19 -70 166
-74 182 -1 6 -5 17 -8 25 -53 136 -126 447 -143 604 -3 33 -8 69 -10 80 -3 16
-15 246 -16 321 -1 27 13 253 17 279 2 17 9 65 14 106 6 41 13 86 16 100 3 14
7 36 10 50 11 61 18 90 36 170 11 47 23 92 26 100 4 8 7 18 8 23 2 4 3 8 5 10
1 1 3 9 5 17 21 93 107 301 193 470 64 125 198 339 290 461 80 108 254 295
362 389 35 30 68 60 74 65 48 45 297 225 361 261 11 6 52 30 92 53 40 22 77
41 83 41 5 0 10 4 10 10 0 5 3 9 8 8 4 -1 32 11 62 26 130 64 406 169 480 182
14 3 43 12 65 20 22 9 41 15 43 14 2 -1 67 9 92 15 41 10 70 16 95 20 17 3 39
7 50 9 11 2 49 7 85 11 36 4 74 9 85 11 11 2 76 6 144 9 68 2 126 7 129 9 3 3
8 3 12 1 4 -3 70 -7 146 -10z"/>
<path d="M4407 6313 c-3 -5 -6 -47 -7 -93 -1 -47 -2 -89 -2 -95 0 -5 0 -46 1
-90 0 -44 0 -93 0 -110 0 -16 -1 -82 0 -145 0 -63 0 -122 -1 -130 0 -8 0 -51
1 -95 0 -44 0 -93 0 -110 0 -16 -1 -82 0 -145 0 -63 0 -122 0 -130 0 -8 0 -52
1 -97 1 -46 -1 -87 -5 -92 -3 -5 -1 -12 5 -16 6 -4 8 -11 5 -16 -4 -5 -5 -60
-5 -121 1 -62 1 -124 0 -138 -1 -14 -2 -36 -2 -50 1 -76 1 -257 0 -270 0 -8 0
-51 1 -95 0 -44 0 -93 0 -110 0 -16 -1 -82 0 -145 0 -63 0 -122 0 -130 0 -8 0
-53 0 -100 0 -47 -1 -107 -2 -135 -2 -57 5 -54 -137 -54 -36 0 -80 0 -97 0
-64 -1 -133 -1 -160 0 -16 1 -50 1 -78 0 -27 0 -57 -1 -65 0 -14 0 -104 0
-177 0 -64 -1 -133 -1 -160 0 -16 1 -50 1 -78 0 -27 0 -57 -1 -65 0 -14 0
-104 0 -177 0 -64 -1 -133 -1 -160 0 -16 1 -50 1 -78 0 -27 0 -57 -1 -65 0
-14 0 -104 0 -177 0 -64 -1 -133 -1 -160 0 -16 1 -50 1 -78 0 -27 0 -57 -1
-65 0 -14 0 -104 0 -177 0 -64 -1 -133 -1 -160 0 -16 1 -50 1 -78 0 -27 0 -57
-1 -65 0 -8 0 -37 0 -65 0 -27 -1 -76 0 -108 1 -31 2 -57 0 -57 -4 0 -4 -7 -5
-15 -2 -13 5 -14 -10 -10 -117 2 -68 6 -137 9 -154 2 -16 7 -57 11 -90 4 -32
9 -68 11 -80 2 -11 7 -36 10 -55 3 -19 9 -51 14 -70 5 -19 11 -46 14 -60 13
-67 65 -233 106 -340 11 -30 26 -68 32 -85 21 -54 141 -290 149 -293 5 -2 9
-8 9 -13 0 -9 78 -138 90 -149 3 -3 18 -25 34 -50 16 -25 54 -76 85 -115 31
-38 62 -79 71 -89 86 -111 483 -466 520 -466 6 0 13 -7 16 -15 4 -8 10 -15 15
-15 4 0 46 -24 91 -53 82 -53 301 -166 388 -201 25 -9 54 -21 65 -26 25 -11
205 -71 225 -75 8 -2 60 -15 115 -28 248 -63 517 -87 790 -72 96 5 194 14 215
20 8 2 37 7 64 10 27 3 51 7 55 9 3 2 24 7 46 10 171 26 471 129 670 228 85
43 237 128 245 138 3 3 30 21 60 40 30 19 60 39 67 45 17 14 33 26 78 60 100
74 146 116 278 250 138 140 134 136 193 210 21 28 42 52 47 53 4 2 7 10 7 17
0 7 4 15 8 17 24 10 150 212 235 378 73 140 174 391 191 475 1 6 5 19 9 30 3
11 8 31 11 45 2 14 9 44 15 68 7 24 14 55 16 70 3 15 9 49 15 77 6 27 13 74
16 105 3 30 8 69 10 85 2 17 6 79 9 139 3 60 8 113 11 118 3 4 2 8 -3 8 -4 0
-8 46 -9 103 -1 99 -11 247 -19 277 -2 8 -6 33 -9 55 -6 51 -23 137 -37 189
-6 23 -13 50 -15 60 -10 53 -68 238 -94 301 -5 11 -17 40 -27 65 -33 81 -132
279 -168 335 -19 31 -35 60 -35 65 0 6 -4 10 -10 10 -5 0 -10 5 -10 10 0 6
-21 40 -47 78 -161 233 -384 464 -628 650 -190 144 -482 299 -710 376 -44 15
-87 30 -95 33 -18 7 -10 5 -132 37 -53 13 -114 27 -135 31 -21 3 -45 7 -53 10
-21 6 -59 12 -121 20 -30 3 -67 8 -84 10 -73 10 -274 15 -278 8z"/>
</g>
</svg>
